# xmcd CD database file
#
# Track frame offsets:
#	150
#	12810
#	23435
#	36038
#	46868
#	60283
#	71629
#	86288
#	101121
#	115644
#	130440
#	143502
#	157655
#	169357
#	182842
#	193996
#	206212
#	219380
#	233145
#	247755
#	260290
#	271806
#	282781
#	294501
#	307534
#	319225
#	330929
#	343254
#
# Disc length: 4721 seconds
#
# Revision: 0
# Processed by: cddbd v1.5.2PL0 Copyright (c) Steve Scherf et al.
# Submitted via: CDex 1.51
#
DISCID=7c126f1c
DTITLE=Oscar Aleman - Ultimate
DYEAR=1900
DGENRE=Jazz
TTITLE0=Oscar Aleman - Sweet Sue
TTITLE1=Oscar Aleman - Nobody's Sweetheart
TTITLE2=Oscar Aleman - Whispering
TTITLE3=Oscar Aleman - Just A Little Swing
TTITLE4=Oscar Aleman - Dear Old Southland
TTITLE5=Oscar Aleman - Jeeper Creepers
TTITLE6=Oscar Aleman - Sweet Georgia Brown
TTITLE7=Oscar Aleman - In The Mood
TTITLE8=Oscar Aleman - Hombre Mio (Man Of Mine)
TTITLE9=Oscar Aleman - I've Got Rhythm
TTITLE10=Oscar Aleman - Begin The Beguine
TTITLE11=Oscar Aleman - Bye Bye Blues
TTITLE12=Oscar Aleman - Besame Mucho
TTITLE13=Oscar Aleman - I Never Knew
TTITLE14=Oscar Aleman - Caminos Cruzados (Malaguena)
TTITLE15=Oscar Aleman - Limehouse Blues
TTITLE16=Oscar Aleman - Scartunas
TTITLE17=Oscar Aleman - You Made Me Love You
TTITLE18=Oscar Aleman - Cherokee
TTITLE19=Oscar Aleman - Stardust
TTITLE20=Oscar Aleman - Honeysuckle Rose
TTITLE21=Oscar Aleman - Lady Be Good
TTITLE22=Oscar Aleman - Improvisaciones Sobre Boogie W
TTITLE23=Oscar Aleman - Darktown Strutter's Ball
TTITLE24=Oscar Aleman - I'm Beginning To See The Light
TTITLE25=Oscar Aleman - Blue Skies
TTITLE26=Oscar Aleman - Twelfth Street Rag
TTITLE27=Oscar Aleman - Crazy Rhythm
EXTD=
EXTT0=
EXTT1=
EXTT2=
EXTT3=
EXTT4=
EXTT5=
EXTT6=
EXTT7=
EXTT8=
EXTT9=
EXTT10=
EXTT11=
EXTT12=
EXTT13=
EXTT14=
EXTT15=
EXTT16=
EXTT17=
EXTT18=
EXTT19=
EXTT20=
EXTT21=
EXTT22=
EXTT23=
EXTT24=
EXTT25=
EXTT26=
EXTT27=
PLAYORDER=
